<svg width="520" height="520" viewBox="0 0 520 520" fill="none" xmlns="http://www.w3.org/2000/svg">
<rect width="520" height="520" rx="260" fill="white"/>
<path fill-rule="evenodd" clip-rule="evenodd" d="M146.203 260C146.203 247.009 148.359 234.553 152.213 222.872L84.8063 171.4C71.6688 198.072 64.2688 228.128 64.2688 260C64.2688 291.847 71.6626 321.881 84.7782 348.537L152.147 296.966C148.331 285.338 146.203 272.928 146.203 260Z" fill="#FBBC05"/>
<path fill-rule="evenodd" clip-rule="evenodd" d="M264.553 141.819C292.775 141.819 318.266 151.819 338.294 168.181L396.556 110C361.053 79.0906 315.534 60 264.553 60C185.403 60 117.378 105.262 84.8062 171.4L152.209 222.872C167.741 175.728 212.012 141.819 264.553 141.819Z" fill="#EA4335"/>
<path fill-rule="evenodd" clip-rule="evenodd" d="M264.553 378.181C212.016 378.181 167.744 344.272 152.212 297.128L84.8062 348.591C117.378 414.737 185.403 460 264.553 460C313.403 460 360.044 442.653 395.047 410.153L331.066 360.691C313.012 372.062 290.278 378.181 264.553 378.181Z" fill="#34A853"/>
<path fill-rule="evenodd" clip-rule="evenodd" d="M455.731 260C455.731 248.181 453.909 235.453 451.178 223.637H264.553V300.909H371.978C366.606 327.256 351.987 347.509 331.066 360.691L395.047 410.153C431.816 376.028 455.731 325.191 455.731 260Z" fill="#4285F4"/>
</svg>
